<svg xmlns="http://www.w3.org/2000/svg" viewBox="0 0 800 800">
  <rect width="800" height="800" fill="#1C0A00"/>
  <g opacity="0.16" fill="none" stroke="#F4A724" stroke-width="7" stroke-linecap="round">
    <path d="M80 150q60-80 150 0q-75 34-150 0z"/><path d="M92 143q12 18 30 30M130 116q12 18 30 30M170 112q12 18 30 30"/>
    <path d="M480 110q60-80 150 0q-75 34-150 0z"/><path d="M492 103q12 18 30 30M530 76q12 18 30 30M570 72q12 18 30 30"/>
    <path d="M260 360q60-80 150 0q-75 34-150 0z"/><path d="M272 353q12 18 30 30M310 326q12 18 30 30M350 322q12 18 30 30"/>
    <path d="M570 560q60-80 150 0q-75 34-150 0z"/><path d="M582 553q12 18 30 30M620 526q12 18 30 30M660 522q12 18 30 30"/>
    <path d="M60 610q60-80 150 0q-75 34-150 0z"/><path d="M72 603q12 18 30 30M110 576q12 18 30 30M150 572q12 18 30 30"/>
  </g>
</svg>
